<svg xmlns="http://www.w3.org/2000/svg" viewBox="0 0 100 100" fill="none">
  <!-- Left brain half - dark navy -->
  <path d="M50 12
    C44 12 36 13 29 18
    C22 23 17 30 15 38
    C13 44 13 50 15 56
    C13 62 14 70 20 77
    C27 85 40 88 50 88
    L50 12Z"
    fill="#1a2d4a"/>

  <!-- Right brain half - teal -->
  <path d="M50 12
    C56 12 64 13 71 18
    C78 23 83 30 85 38
    C87 44 87 50 85 56
    C87 62 86 70 80 77
    C73 85 60 88 50 88
    L50 12Z"
    fill="#17a2b8"/>

  <!-- Left circuit traces - teal glow -->
  <line x1="36" y1="28" x2="36" y2="72" stroke="#4dd9f0" stroke-width="1.8" stroke-linecap="round"/>
  <line x1="36" y1="36" x2="22" y2="36" stroke="#4dd9f0" stroke-width="1.8" stroke-linecap="round"/>
  <line x1="36" y1="50" x2="20" y2="50" stroke="#4dd9f0" stroke-width="1.8" stroke-linecap="round"/>
  <line x1="36" y1="64" x2="23" y2="64" stroke="#4dd9f0" stroke-width="1.8" stroke-linecap="round"/>
  <line x1="36" y1="43" x2="47" y2="43" stroke="#4dd9f0" stroke-width="1.8" stroke-linecap="round"/>
  <line x1="36" y1="57" x2="47" y2="57" stroke="#4dd9f0" stroke-width="1.8" stroke-linecap="round"/>
  <!-- Left nodes -->
  <circle cx="22" cy="36" r="3" fill="#4dd9f0"/>
  <circle cx="20" cy="50" r="3" fill="#4dd9f0"/>
  <circle cx="23" cy="64" r="3" fill="#4dd9f0"/>
  <circle cx="36" cy="28" r="2.5" fill="#4dd9f0"/>
  <circle cx="36" cy="72" r="2.5" fill="#4dd9f0"/>

  <!-- Right circuit traces - white/light -->
  <line x1="64" y1="28" x2="64" y2="72" stroke="#cff4fc" stroke-width="1.8" stroke-linecap="round"/>
  <line x1="64" y1="36" x2="78" y2="36" stroke="#cff4fc" stroke-width="1.8" stroke-linecap="round"/>
  <line x1="64" y1="50" x2="80" y2="50" stroke="#cff4fc" stroke-width="1.8" stroke-linecap="round"/>
  <line x1="64" y1="64" x2="77" y2="64" stroke="#cff4fc" stroke-width="1.8" stroke-linecap="round"/>
  <line x1="64" y1="43" x2="53" y2="43" stroke="#cff4fc" stroke-width="1.8" stroke-linecap="round"/>
  <line x1="64" y1="57" x2="53" y2="57" stroke="#cff4fc" stroke-width="1.8" stroke-linecap="round"/>
  <!-- Right nodes -->
  <circle cx="78" cy="36" r="3" fill="#cff4fc"/>
  <circle cx="80" cy="50" r="3" fill="#cff4fc"/>
  <circle cx="77" cy="64" r="3" fill="#cff4fc"/>
  <circle cx="64" cy="28" r="2.5" fill="#cff4fc"/>
  <circle cx="64" cy="72" r="2.5" fill="#cff4fc"/>

  <!-- Center divider -->
  <line x1="50" y1="14" x2="50" y2="86" stroke="white" stroke-width="1.5" stroke-opacity="0.2"/>
</svg>
